<svg width="252.000000" height="252.000000" viewBox="0 0 252 252" fill="none" xmlns="http://www.w3.org/2000/svg" xmlns:xlink="http://www.w3.org/1999/xlink">
	<desc>
			Created with Pixso.
	</desc>
	<defs>
		<clipPath id="clip4_17">
			<rect id="svg" width="252.000000" height="252.000000" fill="white" fill-opacity="0"/>
		</clipPath>
	</defs>
	<g clip-path="url(#clip4_17)">
		<path id="path" d="M183.99 77.66C197.21 74.73 214.41 61.62 217.03 55.16C218.57 51.38 210.91 45.47 208.86 43.09C204.17 37.66 206.06 34.98 207.88 28.5C209.94 21.14 205.04 13.01 198.09 9.82C191.14 6.63 182.83 7.63 175.84 10.74C168.86 13.86 162.89 18.86 157.04 23.78C152.77 21.08 145.96 9.17 134.93 16.91C127.31 22.24 126.63 33.86 127.61 43.13C129.91 64.53 135.19 75.63 145.13 78.63C157.69 82.41 171.59 80.42 183.99 77.66Z" fill="#FFCA28" fill-opacity="1.000000" fill-rule="nonzero"/>
		<path id="path" d="M205.45 16.1C203.78 44.94 175.65 64.08 162.3 72.5L170.96 79.95C170.96 79.95 176.45 80.06 183.98 77.66C196.87 73.57 215.71 61.99 217.01 55.16C218.92 45.22 208.72 47.38 206.42 39.53C205.22 35.37 212.27 27.52 205.45 16.1ZM157.06 23.8C157.06 23.8 152.04 18.66 148.32 16.32C146.47 19.8 145.15 23.58 144.5 27.48C143.34 34.33 144.5 44.06 147.24 51.3C147.67 52.42 149.28 52.25 149.46 51.06C151.83 35.49 157.06 23.8 157.06 23.8Z" fill="#E2A610" fill-opacity="1.000000" fill-rule="nonzero"/>
		<path id="path" d="M121.98 75.12C121.98 75.12 60.57 81.76 32.87 135.07C5.17 188.39 28.72 220.71 53.64 232.49C78.57 244.26 141.37 248.41 182.22 238.73C223.07 229.04 233.29 208.96 231.38 189.57C228.61 161.25 202.3 143.85 202.3 143.85C202.3 143.85 203.35 108.89 176.22 86.19C152.14 66.03 121.98 75.12 121.98 75.12Z" fill="#FFCA28" fill-opacity="1.000000" fill-rule="nonzero"/>
		<path id="path" d="M160.78 62.92C177.4 68.33 181.08 83.35 179.88 87.45C178.44 92.25 160.03 73.55 132.67 74.67C123.1 75.06 125.88 69.2 130.31 65.81C136.15 61.34 145.98 58.11 160.78 62.92Z" fill="#6D4C41" fill-opacity="1.000000" fill-rule="nonzero"/>
		<path id="path" d="M160.78 62.92C177.4 68.33 181.08 83.35 179.88 87.45C178.44 92.25 160.03 73.55 132.67 74.67C123.1 75.06 125.88 69.2 130.31 65.81C136.15 61.34 145.98 58.11 160.78 62.92Z" fill="#6B4B46" fill-opacity="1.000000" fill-rule="nonzero"/>
		<path id="path" d="M189.96 115.88C192.05 114.44 199.06 116.92 201.02 130.64C201.99 137.36 202.28 143.85 202.28 143.85C202.28 143.85 194.02 136.43 191.28 131.21C187.83 124.62 186.5 118.24 189.96 115.88Z" fill="#E2A610" fill-opacity="1.000000" fill-rule="nonzero"/>
	</g>
</svg>
